<!DOCTYPE svg PUBLIC "-//W3C//DTD SVG 1.1//EN" "http://www.w3.org/Graphics/SVG/1.1/DTD/svg11.dtd">
<!-- Uploaded to: SVG Repo, www.svgrepo.com, Transformed by: SVG Repo Mixer Tools -->
<svg width="800px" height="800px" viewBox="0 0 64 64" version="1.1" xml:space="preserve" xmlns="http://www.w3.org/2000/svg" xmlns:xlink="http://www.w3.org/1999/xlink" fill="#2d00a8">
<g id="SVGRepo_bgCarrier" stroke-width="0"/>
<g id="SVGRepo_tracerCarrier" stroke-linecap="round" stroke-linejoin="round" stroke="#2d00a8" stroke-width="2.432"> <style type="text/css"> .st0{fill:none;stroke:#2d00a8;stroke-width:0.25;stroke-miterlimit:10;} .st1{fill:none;stroke:#2d00a8;stroke-width:0.25;stroke-miterlimit:10;} .st2{fill:none;stroke:#2d00a8;stroke-width:2;stroke-miterlimit:10;} .st3{fill:#2d00a8;} .st4{fill:#2d00a8;} .st5{fill:#2d00a8;} .st6{fill:#2d00a8;} .st7{fill:#2d00a8;} .st8{fill:#2d00a8;} .st9{fill:#2d00a8;} .st10{fill:#2d00a8;} </style> <g id="Layer_1"/> <g id="Layer_2"> <g> <path d="M59.3,58.9v-40h-1h-11v40h-1.9v-30h-1h-11v30h-1.9v-34h-1h-11v34h-1.9v-26h-1h-11v26H4v2h1.6h12h1.9h12h1.9h12h1.9h12H60 v-2H59.3z M7.6,58.9v-24h8v24H7.6z M21.5,26.9h8v32l-8,0V26.9z M35.4,58.9v-28h8v28H35.4z M49.3,20.9h8v38l-8,0V20.9z"/> <polygon points="26.2,12.5 36.7,22.8 54.9,4.6 53.5,3.1 36.7,19.9 26.1,9.6 8.5,27.5 10,28.9 "/> </g> </g> </g>
<g id="SVGRepo_iconCarrier"> <style type="text/css"> .st0{fill:none;stroke:#2d00a8;stroke-width:0.25;stroke-miterlimit:10;} .st1{fill:none;stroke:#2d00a8;stroke-width:0.25;stroke-miterlimit:10;} .st2{fill:none;stroke:#2d00a8;stroke-width:2;stroke-miterlimit:10;} .st3{fill:#2d00a8;} .st4{fill:#2d00a8;} .st5{fill:#2d00a8;} .st6{fill:#2d00a8;} .st7{fill:#2d00a8;} .st8{fill:#2d00a8;} .st9{fill:#2d00a8;} .st10{fill:#2d00a8;} </style> <g id="Layer_1"/> <g id="Layer_2"> <g> <path d="M59.3,58.9v-40h-1h-11v40h-1.9v-30h-1h-11v30h-1.9v-34h-1h-11v34h-1.9v-26h-1h-11v26H4v2h1.6h12h1.9h12h1.9h12h1.9h12H60 v-2H59.3z M7.6,58.9v-24h8v24H7.6z M21.5,26.9h8v32l-8,0V26.9z M35.4,58.9v-28h8v28H35.4z M49.3,20.9h8v38l-8,0V20.9z"/> <polygon points="26.2,12.5 36.7,22.8 54.9,4.6 53.5,3.1 36.7,19.9 26.1,9.6 8.5,27.5 10,28.9 "/> </g> </g> </g>
</svg>